<?xml version="1.0" standalone="no"?>
<!DOCTYPE svg PUBLIC "-//W3C//DTD SVG 20010904//EN"
 "http://www.w3.org/TR/2001/REC-SVG-20010904/DTD/svg10.dtd">
<svg version="1.0" xmlns="http://www.w3.org/2000/svg"
 width="1181.000000pt" height="1181.000000pt" viewBox="0 0 1181.000000 1181.000000"
 preserveAspectRatio="xMidYMid meet">
<metadata>
Created by potrace 1.15, written by Peter Selinger 2001-2017
</metadata>
<g transform="translate(0.000000,1181.000000) scale(0.100000,-0.100000)"
fill="#000000" stroke="none">
<path d="M5685 10274 c-496 -38 -877 -122 -1293 -286 -361 -142 -731 -354
-1032 -591 -120 -95 -142 -114 -275 -236 -86 -80 -91 -85 -205 -206 -471 -503
-818 -1144 -984 -1815 -90 -364 -120 -614 -120 -1000 0 -289 8 -405 45 -640
130 -825 497 -1582 1061 -2187 693 -743 1607 -1195 2638 -1304 163 -18 627
-18 790 0 969 102 1839 510 2515 1178 692 683 1108 1556 1216 2553 17 155 17
622 1 785 -29 281 -99 621 -182 880 -131 409 -358 849 -616 1196 -412 552
-921 973 -1539 1270 -425 204 -859 328 -1345 384 -128 15 -568 27 -675 19z
m600 -194 c-7 -78 -2 -93 22 -69 16 16 82 16 119 1 60 -25 66 -60 44 -240
l-12 -102 -29 0 c-25 0 -29 3 -24 23 15 69 25 228 15 247 -25 47 -106 51 -135
6 -8 -12 -22 -74 -31 -137 -9 -63 -17 -115 -18 -116 -1 -1 -12 0 -24 4 -27 7
-27 6 -2 225 28 247 26 238 56 238 l26 0 -7 -80z m618 -26 c15 -3 27 -11 27
-17 0 -11 -110 -440 -114 -444 -2 -3 -79 17 -84 22 -1 1 23 104 54 229 47 189
59 226 73 222 9 -3 28 -8 44 -12z m-863 -4 c24 0 86 -53 93 -80 4 -15 -1 -22
-21 -27 -18 -4 -27 -2 -30 7 -8 24 -51 60 -71 60 -34 0 -69 -18 -87 -45 -34
-52 -13 -192 31 -209 53 -20 125 12 125 56 0 19 25 24 49 9 21 -14 -17 -80
-60 -103 -70 -39 -175 -4 -205 68 -18 43 -18 135 0 177 24 58 99 105 144 91 8
-2 22 -4 32 -4z m-245 -10 c3 -6 3 -19 0 -30 -5 -15 -15 -20 -39 -20 -63 0
-73 -30 -66 -200 3 -85 3 -85 -22 -88 l-26 -3 -6 103 c-4 57 -9 133 -12 171
l-6 67 26 0 c20 0 26 -5 26 -22 0 -22 1 -22 27 5 28 28 85 38 98 17z m-325
-40 c30 -16 40 -44 59 -163 10 -62 21 -119 25 -129 11 -24 -33 -36 -50 -14
-11 16 -15 15 -52 -9 -22 -14 -60 -28 -88 -31 -44 -6 -53 -3 -82 21 -27 22
-32 34 -32 69 0 58 34 88 130 118 80 25 95 44 67 82 -10 14 -26 18 -62 18 -50
-1 -79 -19 -90 -53 -4 -13 -16 -19 -35 -19 -31 0 -32 7 -8 57 24 50 162 83
218 53z m-372 -88 c29 -21 57 -67 64 -106 3 -17 -13 -23 -114 -49 -75 -20
-118 -35 -118 -44 0 -7 13 -27 29 -45 22 -24 37 -32 63 -32 47 0 87 28 95 64
4 25 10 30 34 30 35 0 38 -20 9 -68 -44 -72 -157 -97 -227 -49 -67 45 -96 185
-53 255 42 68 152 90 218 44z m1954 -61 c-2 -19 1 -22 15 -16 92 40 197 -27
180 -114 -13 -61 -80 -241 -91 -241 -38 1 -38 16 -2 128 20 62 36 121 36 132
0 57 -96 82 -138 37 -12 -13 -37 -68 -56 -123 -32 -97 -45 -114 -75 -95 -11 7
-4 37 40 165 47 137 56 156 74 154 14 -2 19 -10 17 -27z m-2313 -45 l24 -24
-23 -12 c-18 -10 -28 -9 -55 6 -28 15 -37 16 -64 4 -42 -17 -63 -47 -50 -72 9
-16 21 -18 109 -16 89 3 101 1 120 -18 11 -11 23 -36 26 -55 14 -92 -124 -172
-216 -124 -42 22 -54 48 -29 63 16 10 24 9 49 -9 53 -40 140 -7 140 53 0 33 3
32 -117 32 -82 1 -95 4 -115 24 -32 31 -31 92 2 127 29 31 103 56 145 49 17
-2 41 -15 54 -28z m2784 -103 c21 -13 44 -38 51 -55 16 -37 10 -72 -11 -64 -8
3 -18 6 -23 6 -4 0 -10 13 -13 30 -11 52 -98 90 -127 55 -19 -23 -3 -49 59
-100 70 -56 89 -91 71 -135 -26 -62 -102 -80 -178 -41 -55 28 -82 65 -82 113
0 33 3 39 16 34 9 -3 20 -6 25 -6 5 0 9 -10 9 -23 0 -33 27 -67 67 -83 40 -17
69 -11 84 18 10 19 4 28 -60 88 -67 63 -76 78 -71 125 2 24 28 54 55 66 30 12
85 0 128 -28z m-3110 -39 c14 -11 35 -35 46 -55 l21 -36 -117 -57 -116 -57 28
-29 c34 -35 76 -46 116 -30 32 13 59 55 59 90 0 11 4 20 9 20 5 0 16 3 25 6
23 9 22 -58 -1 -97 -19 -32 -103 -79 -140 -79 -84 0 -164 88 -170 188 -3 44 0
64 16 89 49 78 153 99 224 47z m3383 -44 l-27 -50 25 -12 c28 -12 30 -16 17
-37 -8 -12 -15 -13 -35 -3 -30 13 -28 16 -92 -106 l-49 -93 24 -18 c20 -15 23
-23 15 -40 -9 -21 -9 -21 -44 -2 -62 33 -61 53 8 184 53 100 59 117 46 125
-11 6 -14 16 -9 31 5 17 10 19 25 11 15 -8 22 -4 40 24 14 23 30 36 48 38 15
2 29 2 31 1 2 -2 -8 -25 -23 -53z m-3810 -29 c44 -27 70 -96 55 -144 -7 -20
-19 -41 -27 -47 -22 -19 -17 -27 24 -33 20 -2 73 -21 117 -41 l80 -37 -25 -19
c-60 -46 -62 -46 -163 -1 -52 22 -102 41 -111 41 -18 0 -76 -27 -76 -35 0 -3
22 -41 50 -84 36 -58 46 -82 37 -88 -7 -5 -24 -17 -39 -26 l-27 -16 -110 174
c-61 96 -118 186 -126 199 -16 24 -15 24 90 91 59 36 116 70 128 75 37 15 91
11 123 -9z m3931 -135 c-8 -11 -46 -76 -87 -143 -40 -68 -75 -123 -79 -123 -3
0 -14 7 -25 15 -17 13 -14 22 70 158 87 144 88 145 111 130 21 -14 22 -18 10
-37z m208 7 c-51 -79 -49 -71 -24 -92 20 -16 21 -21 10 -34 -12 -15 -15 -15
-36 -1 -23 15 -25 14 -82 -73 -33 -48 -63 -93 -66 -100 -4 -6 1 -20 12 -30 14
-13 18 -26 14 -41 -7 -30 -19 -28 -60 13 -43 43 -42 49 45 179 63 94 66 99 47
112 -18 13 -18 15 -3 31 14 13 20 14 32 4 12 -10 19 -7 38 23 19 29 29 36 57
36 l33 0 -17 -27z m-1815 -68 c717 -85 1386 -411 1900 -925 874 -873 1168
-2154 769 -3342 -54 -160 -94 -252 -184 -424 -417 -803 -1164 -1405 -2030
-1634 -190 -50 -485 -103 -485 -87 0 19 104 248 178 391 115 223 235 422 444
738 162 246 172 258 202 258 17 0 102 11 189 25 811 127 1361 332 1574 587 68
81 88 133 88 228 0 78 -3 90 -34 148 -44 80 -159 189 -272 256 -102 61 -284
140 -449 196 -69 23 -126 43 -128 45 -1 1 30 63 71 136 243 444 347 769 334
1043 -20 430 -342 687 -977 780 -254 38 -847 43 -869 8 -9 -14 -33 -223 -27
-229 2 -2 57 1 122 6 152 14 402 14 535 1 334 -33 553 -112 690 -249 106 -107
149 -220 149 -397 0 -403 -228 -908 -865 -1919 -86 -137 -158 -251 -159 -252
0 0 -75 -8 -166 -17 -205 -20 -417 -33 -673 -42 l-197 -7 6 424 7 424 38 36
c96 89 106 237 23 329 -97 107 -261 107 -358 0 -89 -99 -68 -264 43 -342 18
-13 19 -34 26 -441 l8 -427 -59 0 c-147 0 -561 22 -765 40 -123 11 -227 20
-231 20 -3 0 -15 15 -26 33 -11 17 -54 86 -97 152 -466 719 -688 1118 -825
1482 -126 333 -142 589 -49 774 80 160 305 452 527 684 310 324 812 748 1188
1003 383 260 654 90 761 -478 21 -113 29 -466 14 -611 -23 -218 -72 -402 -143
-540 -72 -142 -144 -199 -246 -199 -145 0 -356 150 -562 400 -55 66 -87 97
-97 93 -21 -8 -11 -39 52 -168 188 -384 470 -630 703 -613 266 19 476 375 559
948 25 174 25 576 0 740 -36 233 -99 431 -183 575 -59 101 -186 229 -266 267
-221 108 -480 63 -783 -133 -658 -428 -1678 -1439 -1871 -1854 -87 -188 -84
-451 8 -735 59 -184 165 -419 282 -624 37 -65 66 -119 64 -120 -2 -2 -43 -15
-93 -31 -389 -119 -684 -303 -772 -482 -39 -80 -40 -182 -2 -264 105 -224 491
-430 1074 -574 185 -46 498 -104 665 -125 52 -6 105 -13 117 -16 16 -3 68 -73
187 -252 292 -441 472 -760 597 -1064 l29 -70 -63 7 c-511 54 -1087 283 -1522
605 -661 489 -1106 1203 -1259 2019 -68 363 -66 821 5 1185 159 810 614 1528
1272 2004 469 340 1021 550 1577 602 63 5 133 12 155 14 81 8 424 -4 555 -19z
m1905 -109 c17 -12 13 -19 -58 -113 -82 -105 -95 -144 -59 -176 26 -24 70 -31
98 -16 14 7 57 53 95 102 l71 89 20 -20 20 -20 -93 -118 c-123 -158 -111 -147
-133 -131 -16 12 -17 17 -6 36 11 21 10 22 -9 16 -32 -10 -87 12 -116 46 -38
46 -34 95 12 156 83 110 126 163 133 163 3 0 15 -6 25 -14z m388 -184 c15 -6
12 -13 -23 -47 l-40 -39 22 -23 c17 -19 19 -25 8 -38 -12 -14 -15 -14 -30 0
-25 22 -31 20 -86 -37 -111 -118 -109 -116 -91 -136 21 -23 21 -36 3 -51 -18
-15 -63 22 -71 61 -7 28 10 52 122 169 47 48 52 57 39 68 -12 10 -13 17 -3 31
10 17 13 17 27 5 15 -13 20 -11 45 15 29 30 45 35 78 22z m-5105 -26 c15 -8
37 -25 50 -39 l23 -24 -90 -83 c-50 -46 -91 -86 -91 -90 0 -4 15 -15 33 -25
72 -39 154 11 144 88 -4 30 -1 40 16 52 25 18 33 13 40 -24 18 -88 -67 -181
-166 -181 -56 0 -115 41 -153 105 -62 107 7 234 129 235 21 0 50 -6 65 -14z
m5219 -237 c39 -24 73 -84 73 -129 0 -35 -29 -97 -57 -122 -19 -17 -22 -15
-102 72 -45 50 -86 90 -91 90 -15 0 -40 -57 -40 -90 0 -22 10 -41 30 -62 27
-27 36 -30 71 -25 32 4 42 1 54 -16 13 -19 13 -22 -1 -30 -9 -5 -39 -7 -66 -5
-42 4 -57 12 -91 46 -35 35 -41 48 -45 95 -5 60 9 96 55 139 65 61 147 76 210
37z m-5497 1 c12 -7 13 -13 4 -27 -9 -13 -22 -17 -51 -15 -32 2 -45 -2 -66
-24 -58 -58 -15 -157 86 -199 34 -14 41 -14 71 0 48 23 64 66 43 110 -15 31
-15 34 4 51 18 17 20 17 34 -2 22 -29 28 -79 15 -118 -14 -43 -72 -94 -118
-102 -48 -9 -113 20 -160 70 -74 80 -74 159 0 229 32 31 46 37 81 37 23 0 49
-5 57 -10z m-256 -285 c23 -12 99 -66 215 -152 3 -2 -4 -13 -16 -24 l-20 -21
-102 76 c-57 42 -109 76 -117 76 -48 0 -92 -68 -74 -114 8 -21 105 -107 178
-156 21 -14 21 -16 4 -38 l-18 -23 -136 103 c-129 96 -136 103 -121 120 12 13
20 15 34 7 17 -9 19 -6 19 26 0 48 24 92 63 115 39 24 53 25 91 5z m6114 -168
c45 -30 76 -97 69 -149 -7 -50 -30 -83 -86 -123 -37 -26 -52 -30 -106 -30 -57
0 -67 3 -95 30 -42 40 -60 76 -60 121 0 71 58 138 147 170 45 16 86 10 131
-19z m-6281 -167 l43 -19 -64 -108 c-58 -97 -63 -109 -48 -120 26 -21 78 -15
110 12 38 32 47 68 28 107 -14 27 -14 32 1 55 l17 25 18 -24 c44 -57 27 -151
-38 -208 -33 -29 -55 -34 -119 -30 -98 7 -193 119 -171 203 10 40 50 91 86
109 45 23 84 22 137 -2z m6443 -79 c10 -20 11 -20 56 0 59 27 96 14 125 -43
22 -44 23 -43 -7 -52 -16 -5 -23 0 -32 19 -16 34 -34 40 -72 20 -31 -16 -31
-17 -14 -42 16 -25 16 -27 -2 -40 -16 -12 -20 -10 -31 12 -8 14 -19 25 -25 25
-6 0 -62 -29 -126 -65 -63 -36 -119 -65 -123 -65 -9 0 -33 40 -27 44 2 1 58
34 126 71 115 65 137 85 112 100 -8 5 -7 11 1 21 16 19 26 18 39 -5z m-6605
-283 c80 -40 145 -75 145 -78 0 -4 -6 -14 -13 -24 -13 -17 -23 -14 -158 54
-79 40 -146 73 -147 75 -7 6 9 45 19 45 5 0 74 -33 154 -72z m6930 -68 c8 -16
15 -35 15 -42 0 -10 -383 -187 -416 -192 -4 0 -15 18 -25 40 l-17 42 206 90
c114 50 210 91 214 91 4 1 14 -12 23 -29z m-7059 -36 c-3 -9 -6 -20 -6 -25 0
-5 -11 -9 -25 -9 -37 0 -75 -42 -75 -82 0 -46 24 -76 84 -104 69 -32 101 -31
137 5 36 37 38 79 5 118 -19 22 -22 31 -13 50 13 29 18 29 44 1 48 -54 55
-105 23 -169 -41 -79 -128 -101 -226 -55 -67 31 -104 79 -104 135 0 88 51 151
122 151 33 0 39 -3 34 -16z m7009 -185 c5 -14 1 -25 -11 -33 -17 -13 -16 -14
7 -21 33 -11 48 -34 49 -72 0 -28 -4 -33 -24 -33 -18 0 -25 7 -29 30 -4 16
-18 37 -33 46 -25 17 -29 16 -146 -23 l-119 -41 -10 25 c-5 14 -8 27 -7 28 4
3 302 112 310 114 4 0 10 -8 13 -20z m-7245 -138 c0 -3 -5 -23 -11 -43 -6 -25
-16 -38 -27 -38 -31 0 -61 -30 -72 -71 -9 -33 -8 -45 5 -65 29 -44 53 -27 120
84 45 76 82 102 147 102 39 0 54 -6 83 -31 47 -41 61 -89 46 -160 -23 -111
-91 -179 -179 -179 l-35 0 7 42 c9 54 12 58 45 58 36 0 68 31 81 81 9 34 8 45
-5 65 -37 56 -60 46 -130 -56 -63 -92 -93 -115 -152 -115 -39 0 -49 5 -79 37
-31 34 -34 44 -34 95 0 64 31 144 68 177 32 28 122 41 122 17z m7313 -119 c30
-26 58 -96 59 -149 1 -63 -23 -82 -148 -117 -54 -16 -111 -35 -126 -42 -26
-14 -28 -13 -34 12 -5 20 -2 29 11 36 15 9 14 13 -13 42 -42 44 -52 68 -52
121 0 61 32 95 89 95 49 0 89 -37 116 -107 10 -26 25 -58 33 -70 13 -21 16
-21 42 -8 33 17 42 44 29 90 -12 41 -31 63 -65 71 -17 5 -24 13 -24 31 0 23 3
25 32 19 17 -3 41 -14 51 -24z m117 -379 c0 -6 -9 -15 -20 -18 -20 -6 -19 -8
8 -33 54 -50 50 -157 -6 -186 -15 -7 -74 -21 -132 -30 -58 -9 -115 -19 -127
-22 -20 -4 -23 0 -23 24 l0 28 117 19 c94 14 121 23 140 41 32 32 29 69 -6
105 -34 34 -49 35 -180 14 -97 -16 -110 -13 -111 22 0 13 5 14 198 47 125 22
141 20 142 -11z m-7585 -138 c50 -8 140 -21 200 -30 138 -20 134 -18 127 -50
-4 -24 -8 -26 -36 -21 -17 3 -107 17 -201 31 -252 37 -233 31 -227 60 5 30 13
30 137 10z m310 -193 c-3 -8 -5 -20 -5 -27 0 -8 -8 -16 -19 -20 -18 -5 -18 -6
0 -42 23 -44 24 -91 5 -138 -17 -39 -42 -55 -86 -55 -17 0 -40 5 -52 11 -27
14 -48 68 -48 122 0 81 -9 107 -38 107 -43 0 -62 -26 -62 -86 0 -45 4 -55 26
-71 20 -15 25 -25 20 -41 -9 -29 -19 -28 -56 6 -22 19 -33 39 -37 69 -8 64 5
132 32 159 23 23 28 24 175 21 120 -2 149 -5 145 -15z m-25 -391 c0 -28 -1
-28 -77 -35 -42 -3 -97 -6 -122 -6 -62 0 -91 -21 -91 -66 0 -39 28 -74 63 -75
12 0 70 0 130 1 l107 2 0 -26 c0 -22 -5 -26 -27 -27 -99 -2 -234 -17 -247 -28
-23 -19 -20 -73 4 -99 24 -25 27 -26 173 -22 l107 2 0 -25 c0 -30 -12 -33
-212 -42 l-128 -6 0 26 c0 18 5 25 20 25 18 0 18 2 -5 36 -34 50 -33 103 1
143 14 17 21 31 15 31 -20 0 -51 64 -51 103 0 80 29 96 197 107 65 4 124 8
131 9 7 0 12 -11 12 -28z m7403 -153 c14 -24 39 -56 56 -72 17 -17 31 -38 31
-49 0 -16 -6 -18 -52 -13 -29 3 -111 8 -183 11 -71 3 -154 8 -182 12 -48 5
-53 8 -53 30 l0 24 168 -6 c92 -4 173 -8 180 -10 17 -6 16 -2 -13 55 -31 60
-31 60 -1 60 18 0 31 -11 49 -42z m-293 -312 c0 -18 -7 -25 -30 -30 -22 -4
-35 -15 -47 -41 -17 -35 -17 -38 2 -72 20 -36 64 -66 117 -78 l28 -7 -20 43
c-25 55 -25 63 0 114 25 52 64 75 130 75 85 0 147 -47 157 -118 7 -55 -2 -85
-37 -125 -44 -50 -98 -63 -201 -47 -179 28 -262 118 -219 237 14 38 59 73 93
73 22 0 27 -4 27 -24z m-5600 -83 c93 -147 403 -613 484 -727 42 -60 76 -110
74 -111 -2 -2 -50 5 -108 16 -607 111 -995 265 -1081 431 -63 123 30 251 266
363 49 23 287 113 305 114 3 1 30 -38 60 -86z m4310 9 c240 -94 369 -209 370
-327 0 -153 -263 -305 -748 -430 -123 -32 -443 -97 -449 -91 -2 1 14 25 35 54
64 87 333 489 457 683 l119 186 56 -17 c30 -9 102 -36 160 -58z m-5776 -4 c3
-13 2 -26 -2 -29 -7 -7 -280 -49 -314 -49 -12 0 -18 8 -18 25 0 14 1 25 3 26
11 3 296 47 308 48 9 0 19 -9 23 -21z m26 -160 c0 -10 -2 -18 -3 -18 -32 0
-235 -55 -249 -67 -27 -24 -23 -78 7 -108 30 -31 65 -32 177 -5 46 11 88 20
95 20 12 0 29 -38 20 -46 -7 -7 -288 -74 -312 -74 -7 0 -15 9 -18 21 -4 14 1
22 16 28 l21 8 -22 12 c-31 17 -52 63 -52 116 0 70 23 87 166 119 65 15 124
29 129 30 13 4 25 -14 25 -36z m6992 -103 c3 -3 3 -17 0 -30 -3 -19 -11 -25
-29 -25 -37 0 -63 -18 -78 -53 -26 -62 9 -122 77 -133 27 -5 40 -1 65 20 17
14 33 39 37 56 5 26 9 29 23 22 11 -7 17 -23 18 -51 1 -49 27 -81 66 -81 41 0
58 9 75 41 19 37 10 72 -26 102 -26 22 -27 37 -4 65 7 9 47 -23 64 -51 39 -63
16 -151 -49 -194 -51 -34 -87 -30 -130 15 l-36 38 -35 -24 c-58 -39 -139 -17
-181 51 -26 42 -22 134 7 175 32 42 115 77 136 57z m-6916 -222 l18 -46 -43
-37 -43 -38 12 -38 c7 -22 21 -63 32 -91 l19 -53 58 0 58 0 12 -41 c7 -23 11
-42 9 -44 -2 -1 -113 0 -248 4 l-244 6 -17 46 -17 46 186 166 c103 91 188 166
189 166 1 1 9 -20 19 -46z m6798 -139 c9 -3 16 -17 16 -30 0 -21 -5 -24 -36
-24 -50 0 -94 -45 -94 -95 0 -51 44 -95 95 -95 27 0 44 8 66 29 16 16 29 37
29 46 0 10 6 15 18 13 14 -3 16 -12 14 -46 -4 -53 16 -88 57 -97 82 -18 128
93 59 146 -18 14 -19 18 -7 37 17 28 21 28 52 -4 107 -107 -47 -305 -162 -208
-17 14 -31 35 -31 46 0 11 -3 18 -7 16 -5 -2 -24 -12 -44 -22 -50 -25 -102
-15 -145 28 -89 89 -31 248 98 265 3 1 13 -2 22 -5z m-6394 -663 c0 -12 -98
-102 -153 -140 -66 -45 -137 -75 -149 -63 -6 6 18 27 64 58 40 28 91 73 113
101 37 47 44 52 83 52 23 1 42 -3 42 -8z m3850 -47 c0 -3 -8 -18 -19 -32 -38
-55 -251 -412 -329 -554 -127 -229 -250 -479 -313 -638 l-58 -145 -36 -3 -37
-3 6 288 c3 158 9 460 12 671 l6 382 106 0 c144 0 585 26 655 39 4 0 7 -2 7
-5z m-1360 -24 c85 -5 210 -10 276 -10 l121 0 7 -87 c3 -49 9 -350 12 -670 l7
-583 -40 0 c-36 0 -40 3 -52 38 -92 269 -419 882 -700 1311 l-15 24 114 -7
c63 -4 185 -11 270 -16z m-2433 -109 c-15 -40 -4 -61 34 -61 31 0 31 0 16 -24
-21 -31 -2 -62 32 -53 27 7 27 -8 -1 -27 -52 -37 -118 -29 -118 14 0 10 -11
25 -25 34 -24 16 -26 15 -69 -17 -52 -40 -131 -80 -147 -75 -6 2 21 30 60 61
39 32 89 84 111 117 38 56 43 60 80 60 38 0 38 0 27 -29z m6011 -18 c34 -26
62 -70 62 -101 0 -30 -38 -64 -68 -60 -25 3 -27 1 -24 -35 2 -24 -3 -48 -13
-64 -16 -24 -16 -28 14 -92 16 -36 33 -88 36 -116 6 -49 5 -51 -39 -99 -25
-27 -49 -46 -52 -43 -4 4 -1 35 7 69 15 68 19 192 6 204 -4 4 -25 -11 -48 -34
-22 -23 -46 -42 -53 -42 -29 0 -75 71 -96 148 -9 37 -9 48 5 68 19 29 43 30
96 3 23 -11 42 -19 43 -17 40 62 40 57 10 100 -75 107 9 190 114 111z m-5818
-241 c0 -39 -151 -197 -224 -236 -58 -31 -55 -9 6 48 31 29 75 82 98 117 40
63 44 66 113 78 4 0 7 -3 7 -7z m5506 -134 c20 -18 43 -47 50 -65 26 -62 12
-133 -25 -133 -12 0 -21 -10 -26 -27 -9 -37 -23 -53 -46 -53 -12 0 -19 -7 -19
-19 0 -26 -38 -71 -60 -71 -13 0 -20 -8 -22 -27 -2 -22 -9 -29 -29 -31 -21 -2
-28 -10 -33 -33 -4 -22 -12 -31 -35 -35 -21 -5 -30 -13 -34 -33 -3 -15 -17
-33 -31 -41 -22 -11 -30 -11 -53 1 -16 7 -31 15 -36 17 -4 2 -5 -3 -2 -11 8
-19 -12 -34 -57 -42 -30 -6 -38 -4 -47 13 -14 27 -14 75 1 123 9 31 8 44 -1
62 -7 13 -11 41 -9 62 l3 39 59 -78 c33 -42 67 -81 77 -86 25 -14 42 12 34 50
-7 34 0 38 27 13 17 -15 21 -15 29 -3 5 8 7 30 4 48 -6 30 6 44 20 22 3 -5 15
-10 27 -10 18 0 20 4 14 40 -6 40 0 50 21 29 15 -15 38 -6 58 25 13 20 14 29
5 46 -15 28 -8 35 20 20 18 -10 25 -9 38 4 14 13 14 21 5 47 -12 30 -12 30 18
24 54 -12 84 44 35 66 -22 11 -36 35 -36 67 0 20 17 14 56 -20z m-5373 -41
c-8 -49 18 -71 74 -64 54 6 53 -9 -3 -40 -43 -25 -84 -29 -115 -12 -17 9 -29
2 -84 -50 -103 -95 -150 -99 -66 -4 29 32 65 85 81 119 24 49 36 63 62 71 54
18 57 16 51 -20z m369 -448 c-7 -95 -83 -209 -168 -250 -46 -22 -46 -22 -72
-2 -27 20 -72 79 -72 94 0 4 45 6 100 6 126 -2 135 4 133 99 -1 63 0 66 30 85
43 26 53 20 49 -32z m169 -90 c11 -21 8 -92 -6 -149 -5 -21 -1 -29 21 -40 25
-14 28 -13 42 8 22 33 33 27 26 -17 -7 -45 14 -61 42 -30 25 27 31 24 26 -16
-5 -45 19 -57 48 -24 l20 24 -2 -38 c-3 -35 1 -41 33 -60 59 -34 69 -22 69 81
0 76 3 93 21 116 l21 27 124 -3 c82 -2 124 -7 124 -14 0 -6 -5 -25 -11 -43
l-11 -31 -109 0 -109 0 0 -35 c0 -75 -21 -139 -60 -177 -21 -21 -47 -38 -58
-38 -35 0 -72 22 -78 47 -5 18 -11 22 -26 17 -22 -7 -48 12 -48 35 0 12 -9 16
-32 16 -27 0 -34 4 -36 23 -3 17 -10 22 -33 22 -16 0 -38 5 -48 12 -17 10 -25
6 -65 -38 -24 -28 -66 -61 -91 -75 l-47 -24 -44 48 c-61 68 -59 78 19 70 64
-5 128 7 160 31 18 14 16 17 -22 55 -47 47 -52 76 -20 127 27 44 107 114 130
114 10 0 23 -10 30 -21z m4134 -98 c23 -33 30 -54 32 -104 4 -69 -1 -79 -62
-120 -57 -39 -90 -36 -117 10 -19 32 -23 34 -29 17 -4 -10 -16 -41 -26 -67
-34 -91 -112 -157 -183 -157 -22 0 -41 -11 -70 -40 -43 -43 -81 -52 -110 -25
-16 14 -18 13 -23 -14 -8 -39 -49 -65 -101 -66 -30 0 -48 -7 -69 -27 -31 -29
-75 -43 -106 -33 -26 8 -44 49 -82 190 -43 160 -44 167 -24 205 22 43 24 39
65 -130 33 -138 47 -167 74 -157 13 5 13 9 1 35 -13 24 -13 36 -1 81 17 64 44
96 76 86 30 -10 60 -63 60 -107 0 -45 11 -47 47 -12 22 22 24 31 19 65 -7 43
9 54 23 16 16 -40 37 -51 71 -37 29 12 30 14 14 31 -21 23 -15 115 9 153 37
55 105 14 114 -68 l6 -45 36 19 c48 24 131 117 131 146 0 8 -90 -5 -111 -17
-9 -4 -19 -23 -23 -41 -6 -30 -8 -31 -18 -14 -16 28 -3 118 21 137 11 9 42 19
68 23 27 3 73 15 103 26 30 11 58 20 62 20 5 0 8 -20 8 -44 0 -34 -5 -47 -22
-59 -18 -12 -20 -18 -11 -28 9 -9 18 -10 35 -2 38 18 108 72 108 84 0 6 -18
18 -40 26 -38 15 -40 18 -40 58 0 23 3 45 7 48 11 11 46 -17 78 -62z m-2810
-497 c-63 -261 -65 -268 -75 -258 -6 6 -4 66 5 149 27 262 22 242 69 274 22
16 42 28 44 26 2 -2 -17 -88 -43 -191z m1007 -54 l3 -165 25 -3 c23 -3 25 0
26 40 2 75 56 158 105 158 31 0 79 -49 79 -81 0 -16 -7 -19 -49 -19 -64 0
-101 -14 -101 -39 0 -33 28 -45 102 -45 l70 1 -6 -40 c-10 -60 -22 -70 -76
-64 -30 4 -51 1 -64 -9 -26 -19 -110 -18 -129 1 -13 12 -17 12 -32 -5 -9 -10
-33 -20 -53 -22 -36 -3 -36 -4 -49 -65 -13 -64 -34 -115 -61 -145 -16 -19 -64
-22 -111 -9 -39 10 -36 28 8 51 71 36 141 110 141 148 0 5 -21 12 -47 15 -65
7 -86 34 -77 96 8 58 40 146 59 161 35 29 78 -19 91 -99 6 -36 10 -41 34 -41
46 0 51 17 49 159 -1 123 0 134 22 166 13 19 27 31 31 27 4 -4 9 -82 10 -172z
m772 161 c28 -31 45 -91 46 -157 0 -105 -57 -160 -202 -190 -85 -18 -138 -8
-163 29 -30 47 -42 187 -15 187 4 0 10 -14 14 -32 13 -64 30 -78 95 -78 84 0
222 51 236 88 3 8 -9 27 -26 43 -29 27 -30 32 -24 79 8 55 13 59 39 31z
m-1571 -108 c38 -83 45 -157 20 -228 -22 -62 -52 -79 -119 -69 -60 9 -84 33
-84 83 0 42 17 101 30 101 5 0 10 -12 12 -27 3 -24 10 -30 52 -40 54 -14 96
-8 96 12 0 30 -67 112 -108 132 -8 3 49 103 59 103 5 0 24 -30 42 -67z m-374
21 c39 -50 25 -214 -23 -253 -25 -21 -61 0 -77 43 l-13 36 -23 -22 -23 -21
-72 22 c-40 13 -84 25 -98 28 -43 9 -10 -15 56 -40 56 -22 59 -25 62 -59 2
-29 -3 -43 -27 -70 -28 -32 -32 -33 -98 -32 -82 2 -167 32 -208 74 -42 43 -46
112 -11 183 26 54 61 95 72 85 3 -4 -4 -24 -15 -47 -12 -22 -21 -55 -21 -74 0
-76 92 -147 200 -155 66 -5 85 10 37 27 -81 30 -102 45 -105 77 -2 25 4 38 30
63 54 50 93 58 212 39 15 -2 24 7 35 39 32 82 73 104 110 57z m757 -78 c49
-48 53 -67 28 -139 -21 -62 -29 -67 -93 -55 -35 6 -57 6 -64 -1 -5 -5 -13 -52
-18 -103 -12 -140 -18 -173 -35 -194 -14 -17 -15 -1 -9 156 7 185 19 238 55
247 13 4 20 14 20 30 0 38 40 103 63 103 5 0 29 -20 53 -44z"/>
<path d="M5386 9816 c-70 -25 -91 -50 -73 -86 19 -38 83 -40 126 -5 26 23 31
34 31 71 0 50 0 50 -84 20z"/>
<path d="M3813 9480 l-62 -40 31 -48 c17 -26 33 -49 34 -50 1 -2 30 15 64 38
74 50 90 78 66 115 -24 36 -60 32 -133 -15z"/>
<path d="M8594 8796 c-18 -14 -16 -18 46 -80 35 -36 67 -66 71 -66 10 0 29 49
29 76 0 38 -51 84 -92 84 -19 0 -43 -6 -54 -14z"/>
<path d="M8942 8343 c-90 -44 -118 -129 -62 -185 27 -27 36 -30 71 -25 86 11
157 86 145 153 -13 65 -84 92 -154 57z"/>
<path d="M9335 7230 c-40 -44 22 -140 89 -140 58 0 61 11 26 81 -18 35 -38 67
-44 71 -20 14 -53 8 -71 -12z"/>
<path d="M2258 6508 c8 -89 23 -123 55 -126 16 -2 35 2 42 8 23 19 29 74 12
107 -20 39 -35 49 -78 57 l-36 6 5 -52z"/>
<path d="M9650 5689 c-38 -14 -63 -63 -55 -105 8 -44 53 -74 112 -74 121 0
133 147 14 180 -41 11 -38 11 -71 -1z"/>
</g>
</svg>
