<svg id="Layer_1" data-name="Layer 1" xmlns="http://www.w3.org/2000/svg" viewBox="0 0 572 198"><title>Title</title><path d="M454.42,82a46,46,0,0,0-4.33,3.35c-.78.66-1.57,1.31-2.36,1.94a4.17,4.17,0,0,1-4,.66c-.6-.17-1.16-.46-1.75-.66a1.82,1.82,0,0,0-1.77.27,10.8,10.8,0,0,0-.89.76c-.46.43-.9.87-1.32,1.34a30,30,0,0,1-10.37,7.1,7,7,0,0,0-2.48,1.67,19.51,19.51,0,0,1-3.41,2.87,16.53,16.53,0,0,1-6.65,2.73,11.51,11.51,0,0,1-3.26.11,7.61,7.61,0,0,1-5.31-3.11,11.8,11.8,0,0,1-1.81-3.55,19.54,19.54,0,0,1-1-5.09A73.35,73.35,0,0,1,404,81.3c.32-3.22.69-6.43,1.16-9.62.35-2.42.73-4.83,1.12-7.24a15.19,15.19,0,0,1,.78-3c1.09-2.87,2.15-5.75,3.23-8.62.13-.37.27-.74.43-1.1.08-.19.13-.44.44-.42a.43.43,0,0,1,.32.53c-.11.94-.19,1.88-.33,2.81-.51,3.27-1,6.54-1.57,9.8-.63,3.89-1.15,7.79-1.49,11.72a29.76,29.76,0,0,0,.4,7.54,10.35,10.35,0,0,0,4.2,6.84,4.75,4.75,0,0,0,4.13.79c.09-.16.16-.22.16-.28a9.8,9.8,0,0,1,1.05-5,41.52,41.52,0,0,1,5.14-8.43,21.86,21.86,0,0,1,1.94-2,3.72,3.72,0,0,1,4.91.06,5.38,5.38,0,0,1,1.82,3.72,20.48,20.48,0,0,1-.28,4.94,22.33,22.33,0,0,1-1.46,4.73.92.92,0,0,0,0,.44c0,.15.34.22.63.13a10.15,10.15,0,0,0,1.1-.37,13.64,13.64,0,0,0,4.11-2.66c1.43-1.35,2.79-2.75,4.18-4.13.45-.44.88-.89,1.35-1.31a2.91,2.91,0,0,1,2.39-.72,7.87,7.87,0,0,1,1.57.4c.43.16.84.41,1.27.59,1.24.52,2,.25,3-1.11-.15-.22-.34-.46-.5-.71a4.58,4.58,0,0,1-.36-4.9,19.46,19.46,0,0,1,1.07-1.83A48.71,48.71,0,0,1,455.54,66a22.45,22.45,0,0,1,1.93-1.71,3.58,3.58,0,0,1,3-.92,1.94,1.94,0,0,0,.52,0l.75-1.68A18.17,18.17,0,0,1,466.62,55a57.6,57.6,0,0,1,11-7.57c3.6-1.88,7.22-3.71,10.84-5.53q5.74-2.9,11.3-6.17a3.08,3.08,0,0,1,1.47-.66.63.63,0,0,1,.41.17.47.47,0,0,1,.12.4A16,16,0,0,1,498,41.84a11.58,11.58,0,0,1-3,2.16c-2,1-4,2-6.07,3-5,2.47-10.1,4.91-15.14,7.38A43.77,43.77,0,0,0,467.64,58a4.83,4.83,0,0,0-.84.79.41.41,0,0,0,.05.4,1.81,1.81,0,0,0,.62.31,8.39,8.39,0,0,0,2.78.18c2.33-.2,4.65-.43,7-.64,1.08-.1,2.17-.19,3.25-.26a4.87,4.87,0,0,1,.93.08,1.06,1.06,0,0,1,.84,1.22c0,.23-.06.47-.12.7a9.51,9.51,0,0,1-2.62,4.39c-4,3.76-8,7.55-11.94,11.31-.68.65-1.39,1.26-2.12,1.85a17.21,17.21,0,0,1-9.24,3.6C455.67,82,455.12,82,454.42,82Zm6.48-6.44a.74.74,0,0,0,.89.15,13.43,13.43,0,0,0,3.5-2.28c1.92-1.7,3.85-3.41,5.74-5.15.54-.51,1.28-.89,1.44-1.73.06-.33-.48-.42-2.38-.37h-.23a20.63,20.63,0,0,1-5.32-.26,5.32,5.32,0,0,0-.69,0,.49.49,0,0,0-.51.6,8.82,8.82,0,0,1-.44,4.85c-.36,1-.79,1.87-1.22,2.79C461.45,74.63,461.16,75.09,460.9,75.56Zm-36.84,14a5.09,5.09,0,0,0,1.58-.28,7.19,7.19,0,0,0,3.13-3.07,1.46,1.46,0,0,0,0-1.36A4.94,4.94,0,0,0,427,83a3.54,3.54,0,0,0-3.55-.43,6.32,6.32,0,0,0-3.58,3.82,1.84,1.84,0,0,0,.48,1.95,2.48,2.48,0,0,0,.95.65A8.45,8.45,0,0,0,424.06,89.56ZM455,76.41a2.84,2.84,0,0,0,1.83-.42c.83-.56,1.67-1.14,2.46-1.75a3.54,3.54,0,0,0,.75-.88,1.07,1.07,0,0,0,0-1.12A5,5,0,0,0,457.78,70a3,3,0,0,0-2.69-.11,7.31,7.31,0,0,0-3.44,3,2.06,2.06,0,0,0,.92,3A6.21,6.21,0,0,0,455,76.41Z" transform="translate(-19 -1)"/><path d="M337,104.15a95.27,95.27,0,0,1-9.56-.41,25.37,25.37,0,0,1-5.27-1,13,13,0,0,1-2.16-.88,7.44,7.44,0,0,1-4.12-6.18,20.92,20.92,0,0,1,0-3.54A40.11,40.11,0,0,1,317.3,84a10.91,10.91,0,0,1,.7-1.74.83.83,0,0,1,.57-.27c.07,0,.25.21.27.34.1.62.19,1.24.25,1.86a6.26,6.26,0,0,0,2.47,4.39,11.45,11.45,0,0,0,3.51,1.84,30.11,30.11,0,0,0,6.83,1.44A93,93,0,0,0,348,92c2.64-.18,5.28-.38,7.9-.71q4.51-.57,9-1.43A116.63,116.63,0,0,0,378,86.66a53.49,53.49,0,0,0,7.21-2.7c1.06-.5,2.1-1,3.11-1.61a12.67,12.67,0,0,0,4.74-4.79c.31-.54.61-1.1.95-1.62a2.9,2.9,0,0,1,.63-.68.5.5,0,0,1,.43-.08.44.44,0,0,1,.27.31,2.64,2.64,0,0,1-.05.93,41.69,41.69,0,0,1-4.68,10.52,19.32,19.32,0,0,1-5.57,5.64,49.53,49.53,0,0,1-8.71,4.5,89.69,89.69,0,0,1-14.3,4.28c-3.42.76-6.88,1.31-10.35,1.75-2.24.29-4.49.46-6.74.61C342.32,103.9,339.67,104,337,104.15Z" transform="translate(-19 -1)"/><path d="M148.71,75.63c-.45-.28-.93-.53-1.36-.85a1.77,1.77,0,0,1-.7-1.88,3.08,3.08,0,0,1,.17-.68,34.31,34.31,0,0,1,4.49-7.71,6,6,0,0,1,.49-.52,1.59,1.59,0,0,1,1-.47,9.92,9.92,0,0,1,6.94,2.3,6,6,0,0,1,.66.67,2.91,2.91,0,0,1,.59,2.87,8.91,8.91,0,0,1-1.11,2.33,13.16,13.16,0,0,1-4.37,4.19c-1.22.7-2.45,1.36-3.64,2.12-1.77,1.13-3.53,2.3-5.26,3.51a26.14,26.14,0,0,0-4.19,3.75,7.52,7.52,0,0,0-1.35,1.91,2.6,2.6,0,0,0,.39,2.87,5.48,5.48,0,0,0,1,.95,19.05,19.05,0,0,0,1.72,1.22,6,6,0,0,1,2.84,5.13,22.48,22.48,0,0,1-.05,3.07,35.28,35.28,0,0,1-4.63,14.74,45.89,45.89,0,0,1-8.08,10.36,26,26,0,0,1-6.25,4.51,17.36,17.36,0,0,1-12,1.56,11.56,11.56,0,0,1-8.16-6.47,15.2,15.2,0,0,1-1.34-4.26,30.34,30.34,0,0,1-.26-6.6,59.15,59.15,0,0,1,4.24-17.84,96.07,96.07,0,0,1,6.55-13.31,5.07,5.07,0,0,1,1.42-1.85.36.36,0,0,1,.59.36,3.14,3.14,0,0,1-.19.92c-.37.86-.77,1.72-1.18,2.57a103.67,103.67,0,0,0-4.81,11.52,44.47,44.47,0,0,0-2,7.77,16.52,16.52,0,0,0,.17,6.57,10.76,10.76,0,0,0,6.2,7.51,15.4,15.4,0,0,0,5.66,1.28,18.48,18.48,0,0,0,8.21-1.44,24.49,24.49,0,0,0,10.64-8.57,9.52,9.52,0,0,0,1.05-1.83,2.62,2.62,0,0,0-.43-2.87,8,8,0,0,0-1.77-1.52c-1-.7-2.08-1.39-3.11-2.1a9.67,9.67,0,0,1-1.26-1,5.3,5.3,0,0,1-1.5-4.54,15.69,15.69,0,0,1,1-3.87,34.87,34.87,0,0,1,5.37-9.09,33.51,33.51,0,0,1,6.3-5.95c.38-.28.75-.55,1.1-.86C148.69,76,148.68,75.79,148.71,75.63Z" transform="translate(-19 -1)"/><path d="M278.6,79.71c-.42.15-.58.52-.8.84a21,21,0,0,1-3.36,3.92c-.28.27-.55.56-.84.82A8.15,8.15,0,0,0,271.19,89a23.3,23.3,0,0,1-2,4.27c-.4.68-.83,1.34-1.27,2a10.73,10.73,0,0,1-4.84,3.94,37.84,37.84,0,0,1-7.54,2.41,2.19,2.19,0,0,1-.92,0,.84.84,0,0,1-.5-.44.75.75,0,0,1,.11-.64,7.75,7.75,0,0,1,1.29-1,71.38,71.38,0,0,0,8-5.72,23.57,23.57,0,0,0,4.18-4.11,2.41,2.41,0,0,0,.35-.84c0-.08-.13-.27-.24-.33a.63.63,0,0,0-.45,0c-.52.14-1,.35-1.56.45a5,5,0,0,1-4.17-1A3.57,3.57,0,0,1,260.23,85a9.24,9.24,0,0,1,.21-2.1,28.92,28.92,0,0,1,2.71-7,7,7,0,0,1,1.55-2.06,2.27,2.27,0,0,1,1.72-.59,4.7,4.7,0,0,1,3.6,1.91,8.67,8.67,0,0,1,1.48,2.92c.22.76.41,1.52.62,2.28a.48.48,0,0,0,.75.23c.68-.53,1.36-1,2-1.61a4.84,4.84,0,0,0,1.21-1.72,11,11,0,0,0,.93-3.4c.13-1.41.26-2.83.29-4.24a106,106,0,0,1,1.13-12.47,16.32,16.32,0,0,1,.53-2.3,82.21,82.21,0,0,1,3.67-9.7,3.78,3.78,0,0,1,.54-.74s.16,0,.23,0,.14.07.14.12a3.67,3.67,0,0,1,.06.93c-.16,1.17-.37,2.33-.54,3.5-.4,2.65-.78,5.29-1.16,7.94a33.09,33.09,0,0,0-.15,6.37,11.53,11.53,0,0,0,.15,1.18,6.9,6.9,0,0,0,5.69,5.78c1,.2,1.26.06,1.61-.85.61-1.53,1.2-3.07,1.83-4.6a46.41,46.41,0,0,1,3-6.12,17,17,0,0,1,3-3.91,11.54,11.54,0,0,1,1.46-1.15,4,4,0,0,1,2.68-.62,3.49,3.49,0,0,1,2.7,1.65,2.7,2.7,0,0,1-.26,3.47,1.09,1.09,0,0,1-1.26.39c-.66-.23-1.3-.5-2-.71a4,4,0,0,0-4.28,1.1A7.41,7.41,0,0,0,295,60.33a5.32,5.32,0,0,0,0,5.61,3.85,3.85,0,0,0,4,1.79,4.16,4.16,0,0,0,1.29-.54,8.29,8.29,0,0,0,2.35-2.26c.87-1.21,1.72-2.44,2.59-3.65a15.58,15.58,0,0,1,1-1.27.52.52,0,0,1,.42-.1.43.43,0,0,1,.24.33,2.41,2.41,0,0,1-.11.93,52.77,52.77,0,0,1-7.12,13,25.11,25.11,0,0,1-5,5,17.27,17.27,0,0,1-7,3.13,14.2,14.2,0,0,1-4.41.16,5.92,5.92,0,0,1-3.9-1.91C279.18,80.18,279,79.82,278.6,79.71Z" transform="translate(-19 -1)"/><path d="M536.22,81.56a12.75,12.75,0,0,1-5.64,4.25c-1.7.78-3.41,1.51-5.06,2.4a28.55,28.55,0,0,0-3,1.79,6.43,6.43,0,0,1-4.14,1.32,5.05,5.05,0,0,0-3.94,1.74c-.65.68-1.27,1.39-1.88,2.1s-1.08,1.34-1.62,2a12.94,12.94,0,0,1-2.21,2.1,8.52,8.52,0,0,1-6.84,1.6,4.15,4.15,0,0,1-2.25-1.16c-.33-.33-.62-.7-1-1a3.8,3.8,0,0,0-3-1.14,7.54,7.54,0,0,0-3.12.86,13.88,13.88,0,0,0-3.24,2.29c-.52.47-1.06.92-1.61,1.35a.42.42,0,0,1-.42,0,.5.5,0,0,1-.18-.4,2.24,2.24,0,0,1,.17-.91,51.66,51.66,0,0,1,7.19-10.15,20.8,20.8,0,0,1,2.25-2,11.27,11.27,0,0,1,2-1.23,4.57,4.57,0,0,1,4.68.15c.46.29,1,.54,1.43.79a8.5,8.5,0,0,0,3.11.94,7.43,7.43,0,0,0,5.1-1.27c.45-.31.88-.65,1.31-1s.86-.68,1.3-1A5.59,5.59,0,0,1,520,84.68a4.63,4.63,0,0,0,4-1.43l.85-.82c.37-.34.78-.53,1.24-.16a1.68,1.68,0,0,0,2,0,6.35,6.35,0,0,0,1.79-1.48.72.72,0,0,1,1-.13,1.11,1.11,0,0,0,1.3,0,6.42,6.42,0,0,0,2-1.55c.17-.86.3-1.71.5-2.55a16.29,16.29,0,0,1,.56-1.8.72.72,0,0,1,1.28-.25l.14.19a2,2,0,0,0,1.23,1,3.32,3.32,0,0,0,2.27-.29,6.63,6.63,0,0,0,2.12-1.82c.53-.67,1-1.4,1.51-2.09a.43.43,0,0,1,.61-.12,3.67,3.67,0,0,1,.38.27.79.79,0,0,0,.87,0,5.28,5.28,0,0,0,2.18-2.4c.36-.69.63-1.44,1-2.14a1.82,1.82,0,0,1,.47-.49.23.23,0,0,1,.39.07,1.45,1.45,0,0,1,.26.62,13.25,13.25,0,0,1-.7,4.88,6.89,6.89,0,0,1-3.57,4.17,7.45,7.45,0,0,0-2.7,2.18,9.73,9.73,0,0,1-2.26,2,4.87,4.87,0,0,1-4,.91A3.77,3.77,0,0,0,536.22,81.56Z" transform="translate(-19 -1)"/><path d="M216.41,154.7c-.26-1.61-.47-2.69-.58-3.78-.24-2.27-.43-4.55-.63-6.82a160.29,160.29,0,0,1-.31-21,100.52,100.52,0,0,1,3.61-23.75,42.68,42.68,0,0,1,6.08-13,33.25,33.25,0,0,1,4.95-5.64,24,24,0,0,1,6.84-4.44,2.49,2.49,0,0,0,1.44-1.44c.54-1.3,1.13-2.59,1.73-3.87a19.88,19.88,0,0,1,2.22-3.88,1.48,1.48,0,0,1,1.41-.64,11.76,11.76,0,0,1,5.46,1.89,8.64,8.64,0,0,1,1.56,1.4,3.94,3.94,0,0,1,.93,3.08,2.08,2.08,0,0,1,0,.23A15,15,0,0,1,246,81.88a10.69,10.69,0,0,1-3.51,1.82c-2.14.71-4.29,1.39-6.44,2.07a32.17,32.17,0,0,0-5.8,2.46A24.17,24.17,0,0,0,226.22,91,18,18,0,0,0,220,101.75c-.89,4.88-1.51,9.8-2,14.74-.67,7.46-.88,14.93-.89,22.42,0,3.7-.05,7.4-.1,11.11,0,1.17-.13,2.35-.23,3.53A7.05,7.05,0,0,1,216.41,154.7Z" transform="translate(-19 -1)"/><path d="M50.61,100.58A12.42,12.42,0,0,1,51,98.72a33.41,33.41,0,0,1,3.21-7.32,11.6,11.6,0,0,1,1.17-1.47,1.69,1.69,0,0,1,1.25-.53,3.82,3.82,0,0,1,2.62.82,6.93,6.93,0,0,1,1.9,2.36,18,18,0,0,1,1.33,3.77,4.57,4.57,0,0,0,.3.88.43.43,0,0,0,.37.21c2.52-.62,4.92-1.49,6.63-3.63a8.3,8.3,0,0,1,.64-.69c.41-.42.71-.5,1.21-.12a1.62,1.62,0,0,0,2,.11,6.75,6.75,0,0,0,2.33-1.92A.81.81,0,0,1,77.09,91a1.32,1.32,0,0,0,1.52,0A6.83,6.83,0,0,0,80.8,88.9a.69.69,0,0,1,1-.18,1,1,0,0,0,1.29-.1,4.73,4.73,0,0,0,1.73-2.17,12.39,12.39,0,0,0,.94-3.88c.18-2.44.39-4.87.5-7.31a30.62,30.62,0,0,1,1.79-9,71.77,71.77,0,0,1,3-6.93,6.42,6.42,0,0,1,.79-1.16c.07-.08.28-.06.42-.06s.11.12.1.18a8.86,8.86,0,0,1-.08,1.63c-.59,3-1.12,6-1.5,9.08-.27,2.19-.47,4.39-.72,6.58a45.86,45.86,0,0,1-2.81,11.66A21.45,21.45,0,0,1,85,91.65a9.22,9.22,0,0,1-2.65,2.63,6.33,6.33,0,0,1-1.66.84,12.33,12.33,0,0,0-3.17,1.46,7.75,7.75,0,0,1-2.35,1,10,10,0,0,0-1.79.55c-2.15.92-4.37,1.62-6.57,2.4a24.36,24.36,0,0,0-2.57,1.12,6.24,6.24,0,0,0-2.89,3c-.67,1.41-1.41,2.8-2.17,4.17-.57,1-1.21,2-1.86,3a7.85,7.85,0,0,1-3.77,3,57.07,57.07,0,0,1-7.11,2.27c-.45.12-.9.25-1.35.34a3.28,3.28,0,0,1-.7,0c-.24,0-.51-.19-.49-.38a1.18,1.18,0,0,1,.21-.63,2.91,2.91,0,0,1,.72-.58c.53-.33,1.08-.63,1.62-.94a46.35,46.35,0,0,0,8.79-6.6,17.05,17.05,0,0,0,2.9-3.38c0-.08,0-.28-.1-.41a.26.26,0,0,0-.2-.11,1.68,1.68,0,0,0-.45.06c-.45.13-.89.31-1.34.4a7.38,7.38,0,0,1-1.62.18,3.92,3.92,0,0,1-3.74-3.55C50.66,101.28,50.65,101.05,50.61,100.58Z" transform="translate(-19 -1)"/><path d="M582.86,70.36a21.87,21.87,0,0,1,3-4.62,10.39,10.39,0,0,1,1-1,.5.5,0,0,1,.64,0,2.59,2.59,0,0,1,.68.64,16,16,0,0,1,2.69,6,5.93,5.93,0,0,1-1.46,5.47c-.26.29-.55.56-.83.84a3,3,0,0,1-2.78.86c-1-.19-2-.36-3-.57a3,3,0,0,0-2.45.51,11.22,11.22,0,0,0-1.28,1c-.41.36-.79.76-1.17,1.15-2.07,2.15-4.12,4.31-6.2,6.44A7.53,7.53,0,0,0,570,89.62c-.58,1.46-1.22,2.9-1.9,4.31a17.27,17.27,0,0,1-2.33,3.53,9.52,9.52,0,0,1-3.09,2.48,37.62,37.62,0,0,1-7.92,2.78,7.29,7.29,0,0,1-1.62,0,.44.44,0,0,1-.35-.25,1.38,1.38,0,0,1,0-.67.72.72,0,0,1,.28-.37c.44-.31.89-.62,1.36-.91a68.77,68.77,0,0,0,8.35-6,18.35,18.35,0,0,0,3.74-3.88,1.15,1.15,0,0,0,.14-.66c0-.11-.18-.32-.26-.31a4,4,0,0,0-.89.2,6.44,6.44,0,0,1-3.23.22,4.19,4.19,0,0,1-3.45-4.62,7.6,7.6,0,0,1,.2-1.16,29.11,29.11,0,0,1,2.67-7,8,8,0,0,1,1.51-2.09,2.51,2.51,0,0,1,2.37-.68A5.3,5.3,0,0,1,569,76.83a11.62,11.62,0,0,1,1.41,3.23c.13.46.2.93.33,1.38a.53.53,0,0,0,.88.33,18.44,18.44,0,0,0,3.62-3.33l3.69-4.58A12,12,0,0,1,582.86,70.36Z" transform="translate(-19 -1)"/><path d="M289.16,170.72a1.86,1.86,0,0,0-.94.77,6.13,6.13,0,0,1-1.76,1.53c-1,.55-1,.83-.64,1.9a61.77,61.77,0,0,1,1.77,8.07,35.44,35.44,0,0,1,.33,4.24,46.2,46.2,0,0,1-.53,9,16.64,16.64,0,0,1-.71,2.82c-.23-.26-.46-.41-.5-.6A11.09,11.09,0,0,1,286,197a62.44,62.44,0,0,0-3.59-16.08,44.63,44.63,0,0,0-4.3-8.64c-.34-.53-.66-1.07-1-1.59a3,3,0,0,1-.4-2.26,9.11,9.11,0,0,1,.3-1.14c.54-1.81,1.06-3.63,1.63-5.43.28-.92.65-1,1.26-.34.26.29.51.6.78.88a9.21,9.21,0,0,0,2.43,1.82,8.25,8.25,0,0,0,1.52.59,4,4,0,0,0,3.9-1,6.79,6.79,0,0,0,1.58-2c.25-.49.48-1,.73-1.48a.41.41,0,0,1,.6-.08L292.6,162a3.21,3.21,0,0,0,2.3,1.45,5,5,0,0,0,2.53-.25,3,3,0,0,0,1.6-1.32c.28-.47.5-1,.78-1.44.06-.09.27-.1.42-.13s.09.1.1.16a1.48,1.48,0,0,1,.05.47,21,21,0,0,1-2.21,7.66,9.53,9.53,0,0,1-2.1,2.81,3.94,3.94,0,0,1-2.54,1,4.67,4.67,0,0,1-3.67-1.19A7.59,7.59,0,0,0,289.16,170.72Z" transform="translate(-19 -1)"/><path d="M150.62,11.21c0,.15.09.33,0,.44a20.88,20.88,0,0,1-.93,1.9A27.28,27.28,0,0,1,143,21.32q-3.12,2.47-6.33,4.83c-6.49,4.76-13.19,9.2-19.84,13.71Q109,45.18,101.18,50.58a68.38,68.38,0,0,0-7.75,6.05c-.09.09-.28.07-.42.11a2.23,2.23,0,0,1-.11-.66,1.81,1.81,0,0,1,.28-.64c.39-.68.77-1.37,1.2-2s1.07-1.55,1.59-2.33a22.85,22.85,0,0,1,5-5.28c2.16-1.68,4.3-3.4,6.53-5,4.53-3.18,9.11-6.31,13.7-9.41,6.21-4.19,12.45-8.33,18.67-12.5,1.3-.87,2.56-1.79,3.85-2.68a26.58,26.58,0,0,0,4.16-3.41A8.64,8.64,0,0,1,150,11.06C150.21,11,150.59,11,150.62,11.21Z" transform="translate(-19 -1)"/><path d="M358.16,161.33a19.82,19.82,0,0,1-1.08,5.19,12.16,12.16,0,0,1-1.78,3.31,9.66,9.66,0,0,1-5.09,3.57l-1.12.31a1.2,1.2,0,0,0-.86,1.25,5.67,5.67,0,0,0,0,.71c.2,1.72.38,3.44.62,5.16a48.36,48.36,0,0,1,.15,12.49,26,26,0,0,1-1,4.85c0,.11-.21.2-.33.27s-.37-.14-.39-.44a3.89,3.89,0,0,1,0-.47c0-.32,0-.63,0-.95a59.77,59.77,0,0,0-1-10.34,43,43,0,0,0-5.29-14.8c-.48-.81-.9-1.66-1.32-2.5a2.11,2.11,0,0,1-.16-1.6c.65-2.19,1.28-4.38,1.94-6.56a6.78,6.78,0,0,1,.53-1,.66.66,0,0,1,.84-.12,13.17,13.17,0,0,1,.93,1A10.81,10.81,0,0,0,346,163a7.94,7.94,0,0,0,7.07,1.36,6.2,6.2,0,0,0,3.42-2.33c.37-.5.73-1,1.13-1.49,0-.07.26,0,.39,0s.11.11.12.18C358.14,161.06,358.16,161.37,358.16,161.33Z" transform="translate(-19 -1)"/><path d="M424,49.38c-.35.52-.6.91-.86,1.29-.62.91-1.19,1.85-1.87,2.71a7.75,7.75,0,0,1-1.52,1.45,1.58,1.58,0,0,1-1.77.06l-.19-.12c-1.42-1.11-2.84-2.22-4.24-3.34a1.06,1.06,0,0,1-.3-1.28,2,2,0,0,1,.1-.21,53.69,53.69,0,0,1,4.14-7.12c.83-1.21,1.24-1.27,2.53-.56a13.67,13.67,0,0,1,2.83,2.08c.4.37.76.78,1.14,1.17a.52.52,0,0,0,.81,0c.48-.71,1-1.43,1.45-2.14s1.14-1.69,1.74-2.51,1.15-1.37,2.58-.6a10.32,10.32,0,0,1,3.05,2.53,4.28,4.28,0,0,1,.67,4.84,15.25,15.25,0,0,1-3.73,5.08.84.84,0,0,1-.18.15,1.52,1.52,0,0,1-1.75.08c-.64-.46-1.24-1-1.84-1.46A14,14,0,0,0,424,49.38Z" transform="translate(-19 -1)"/><path d="M195.2,85.15a14.54,14.54,0,0,1-.65,3.64,31.91,31.91,0,0,1-3.12,7.34,13.22,13.22,0,0,1-4.5,4.69,22.33,22.33,0,0,1-7.1,2.85,4,4,0,0,1-.92,0c-.2,0-.29-.11-.29-.29s0-.17,0-.22a3.83,3.83,0,0,1,.57-.74c.66-.54,1.34-1.06,2-1.57A47.32,47.32,0,0,0,188,94.72a23.32,23.32,0,0,0,1.44-1.84,2.11,2.11,0,0,0,.28-1.81A5.76,5.76,0,0,0,188.62,89a19.16,19.16,0,0,0-2.7-2.92c-.52-.48-1.07-.92-1.58-1.4a1.93,1.93,0,0,1-.56-2.53c1.14-2.5,2.3-5,3.47-7.46.38-.81.92-.94,1.71-.45a15.36,15.36,0,0,1,3.09,2.48A11.72,11.72,0,0,1,195.2,85.15Z" transform="translate(-19 -1)"/><path d="M456.74,36.17c-.23.33-.45.64-.67,1-.56.84-1.07,1.73-1.69,2.54a12.76,12.76,0,0,1-1.6,1.69,1.64,1.64,0,0,1-2.15.13c-1.48-1.14-2.94-2.31-4.4-3.49a.89.89,0,0,1-.22-1.07,6.6,6.6,0,0,1,.38-.86c1.22-2.1,2.44-4.19,3.68-6.28a7.87,7.87,0,0,1,.72-.92,1.09,1.09,0,0,1,1.28-.27,9.69,9.69,0,0,1,1.24.64,14.57,14.57,0,0,1,2.9,2.35c.32.33.67.63,1,1a14.11,14.11,0,0,0,1.69-2.34c.73-1,1.43-2,2.18-3.06a1.36,1.36,0,0,1,1.66-.48,9.08,9.08,0,0,1,4.32,3.8,3.35,3.35,0,0,1,.35,2.73,9.06,9.06,0,0,1-.35,1.12,14.85,14.85,0,0,1-3.91,5.21,1.44,1.44,0,0,1-1.73.11,10.82,10.82,0,0,1-.94-.69c-.48-.4-.94-.83-1.42-1.23s-1.09-.88-1.65-1.3A3,3,0,0,0,456.74,36.17Z" transform="translate(-19 -1)"/><path d="M442.8,117.58a6.13,6.13,0,0,0,.57-.64c.66-1,1.29-2,1.95-2.94.45-.64.93-1.26,1.42-1.88a1.23,1.23,0,0,1,1.27-.37,2.48,2.48,0,0,1,.67.2,9.73,9.73,0,0,1,3.67,3.22,3.75,3.75,0,0,1,.54,3.37,8.49,8.49,0,0,1-.4,1.1,14.93,14.93,0,0,1-3.64,4.87,1.43,1.43,0,0,1-.58.38,1.55,1.55,0,0,1-.9,0A6.39,6.39,0,0,1,446,124c-.73-.58-1.42-1.22-2.15-1.82-.36-.3-.75-.56-1.13-.83a.58.58,0,0,0-.64.1c-.3.46-.58.93-.89,1.39-.53.78-1,1.58-1.62,2.31a9.49,9.49,0,0,1-1.52,1.45,1.39,1.39,0,0,1-1.75,0c-1.5-1.12-3-2.29-4.45-3.44a.93.93,0,0,1-.16-.18.92.92,0,0,1-.21-.87c.08-.22.16-.44.26-.65a56.69,56.69,0,0,1,4-6.91c.81-1.17,1.31-1.26,2.56-.57a15.11,15.11,0,0,1,3.16,2.41C441.89,116.84,442.16,117.36,442.8,117.58Z" transform="translate(-19 -1)"/><path d="M485.78,10.51a6,6,0,0,0-.66.7c-.52.78-1,1.6-1.51,2.38a9.5,9.5,0,0,1-2.05,2.24,1.51,1.51,0,0,1-1.94.13c-1.49-1.13-3-2.29-4.43-3.45a1,1,0,0,1-.28-1.28,6.66,6.66,0,0,1,.39-.86c1.13-2,2.27-3.93,3.43-5.89a9.19,9.19,0,0,1,.84-1.13A1.1,1.1,0,0,1,480.84,3a5.49,5.49,0,0,1,1.06.46A14.78,14.78,0,0,1,485,5.93a8,8,0,0,0,.85.8.46.46,0,0,0,.42-.05,4.6,4.6,0,0,0,.6-.71c.66-1,1.28-2,1.95-2.93.41-.58.85-1.13,1.3-1.67A1,1,0,0,1,491.2,1a4.11,4.11,0,0,1,1.09.36,10,10,0,0,1,3.31,2.92,4.17,4.17,0,0,1,.57,3.82,7,7,0,0,1-.56,1.29,17.07,17.07,0,0,1-3.1,4.12l-.17.15a1.54,1.54,0,0,1-2.29.19c-.44-.32-.86-.68-1.28-1-.66-.55-1.3-1.12-2-1.66A12,12,0,0,0,485.78,10.51Z" transform="translate(-19 -1)"/><path d="M354.89,59.13a9.09,9.09,0,0,0,1.37-1.87c.62-.9,1.23-1.82,1.86-2.71a6.49,6.49,0,0,1,.76-.89,1.12,1.12,0,0,1,1.29-.27,9.19,9.19,0,0,1,.86.36,10.17,10.17,0,0,1,3.15,2.76,4.2,4.2,0,0,1,.57,4.23,8.73,8.73,0,0,1-.49,1.08A15.69,15.69,0,0,1,361,66.07c-.92.81-1.33.72-2.3.11a8,8,0,0,1-.92-.73c-.48-.4-.93-.84-1.42-1.23s-1-.76-1.49-1.13a.62.62,0,0,0-.82.17c-.38.59-.75,1.19-1.14,1.78a12.94,12.94,0,0,1-2,2.59,9,9,0,0,1-1.13.82,1.17,1.17,0,0,1-1.12,0,1.32,1.32,0,0,1-.2-.12l-4.63-3.58a1,1,0,0,1-.24-1.09c.06-.14.11-.29.18-.43a57.35,57.35,0,0,1,4.15-7.11,3.14,3.14,0,0,1,.63-.68,1.1,1.1,0,0,1,.65-.19,3.6,3.6,0,0,1,1.51.58,15.49,15.49,0,0,1,3.42,2.83A1,1,0,0,0,354.89,59.13Z" transform="translate(-19 -1)"/><path d="M83.13,66a5.73,5.73,0,0,1-.44,2.31,15.67,15.67,0,0,1-3.56,4.92,3,3,0,0,1-.59.38,1.1,1.1,0,0,1-1.11,0,10.36,10.36,0,0,1-1.35-.92c-.79-.64-1.54-1.33-2.32-2a5.85,5.85,0,0,0-.79-.5.65.65,0,0,0-.63.17c-.34.52-.66,1.06-1,1.58-.57.83-1.14,1.68-1.78,2.47a5.45,5.45,0,0,1-1.25,1,1.18,1.18,0,0,1-1.32,0,31.15,31.15,0,0,1-4.73-3.43,1.05,1.05,0,0,1-.22-1.3c.73-1.38,1.45-2.78,2.24-4.13s1.52-2.38,2.32-3.54a1.12,1.12,0,0,1,1.45-.4,13.53,13.53,0,0,1,1.82,1,16.15,16.15,0,0,1,2.79,2.5.48.48,0,0,0,.78-.1c.62-.9,1.22-1.82,1.85-2.72s1.1-1.53,1.67-2.27a1.21,1.21,0,0,1,1.27-.38.86.86,0,0,1,.23.05,8.53,8.53,0,0,1,4.29,3.81A5.65,5.65,0,0,1,83.13,66Z" transform="translate(-19 -1)"/><path d="M263.53,189a37.89,37.89,0,0,1-.9,8.91,1.84,1.84,0,0,1-.24.64c-.07.1-.26.12-.4.15s-.13-.09-.14-.15c-.15-1-.31-2-.44-3a66.59,66.59,0,0,0-3.54-13.92,52.81,52.81,0,0,0-5-10.66,3.47,3.47,0,0,1-.53-2.92c.64-2.27,1.32-4.52,2-6.78a.5.5,0,0,1,.77-.15,3.33,3.33,0,0,1,.43.56c.51.88,1,1.76,1.48,2.68a71.68,71.68,0,0,1,5.57,16A32.22,32.22,0,0,1,263.53,189Z" transform="translate(-19 -1)"/><path d="M323.89,189a36.55,36.55,0,0,1-.52,7.29c-.14.77-.35,1.53-.54,2.29a.22.22,0,0,1-.36.13c-.07,0-.16-.07-.18-.13a2.54,2.54,0,0,1-.21-.66A65.26,65.26,0,0,0,318,181a52.81,52.81,0,0,0-4.72-10c-.12-.2-.22-.41-.34-.62a2.56,2.56,0,0,1-.28-2c.65-2.35,1.36-4.68,2.05-7a.48.48,0,0,1,.76-.2,4.61,4.61,0,0,1,.44.55c.47.81,1,1.62,1.38,2.47.74,1.55,1.47,3.12,2.11,4.73a72.51,72.51,0,0,1,3.43,10.77A33.46,33.46,0,0,1,323.89,189Z" transform="translate(-19 -1)"/><path d="M166.7,94.6c.08-.55.29-1.48.44-2.41.46-3,.77-5.93,1-8.92.36-4.39.79-8.79,1.19-13.18.15-1.65.29-3.3.42-4.94a20.38,20.38,0,0,1,1.09-4.83,77.8,77.8,0,0,1,4-9.55,3.34,3.34,0,0,1,.57-.73s.15,0,.22,0,.28.07.27.28a4.79,4.79,0,0,1-.06.93,87.47,87.47,0,0,0-1.25,9.13c-.46,4.23-.86,8.46-1.28,12.69-.21,2-.39,4.08-.62,6.12a41.22,41.22,0,0,1-2.37,10.33,24.51,24.51,0,0,1-3.06,5.82,1,1,0,0,1-.39.19C166.76,95.56,166.59,95.28,166.7,94.6Z" transform="translate(-19 -1)"/><path d="M20.72,119h-.57c-.73,0-1.13-.18-1.15-.54a1.34,1.34,0,0,1,.67-1.17c.56-.42,1.16-.79,1.74-1.2,1.85-1.29,3.73-2.55,5.56-3.89a27.27,27.27,0,0,0,7.44-8.37,71.76,71.76,0,0,0,5.17-11.1c.24-.66.51-1.31.78-2a.74.74,0,0,1,.24-.39,1.27,1.27,0,0,1,.63-.17c.09,0,.25.22.25.34a6.58,6.58,0,0,1-.14,1.4,105.67,105.67,0,0,1-4.57,14.12,39.62,39.62,0,0,1-3,5.89,19.09,19.09,0,0,1-2.44,3.15,9.27,9.27,0,0,1-3.47,2.34A25.94,25.94,0,0,1,20.72,119Z" transform="translate(-19 -1)"/><path d="M76.92,56.08a8.54,8.54,0,0,1-.22,1.18,14.9,14.9,0,0,1-3,5.22,2.33,2.33,0,0,1-.55.43.82.82,0,0,1-.88,0,4.46,4.46,0,0,1-.78-.49,27.66,27.66,0,0,0-3.54-2.65,2.31,2.31,0,0,1-.51-.48.91.91,0,0,1-.19-.87,5.12,5.12,0,0,1,.25-.65A53.32,53.32,0,0,1,70.51,52a6.14,6.14,0,0,1,.86-1.1.83.83,0,0,1,.85-.25,4.3,4.3,0,0,1,.88.28,8.26,8.26,0,0,1,3.35,3.15A3.44,3.44,0,0,1,76.92,56.08Z" transform="translate(-19 -1)"/></svg>